<svg xmlns="http://www.w3.org/2000/svg" width="760" height="240" viewBox="0 0 760 240" role="img" aria-labelledby="title desc">
  <title id="title">Alshahama Medical Equipment logo</title>
  <desc id="desc">Arabic and English Alshahama wordmark with a teal and violet mobility icon.</desc>
  <defs>
    <linearGradient id="brand" x1="620" y1="35" x2="725" y2="160" gradientUnits="userSpaceOnUse">
      <stop stop-color="#25BDB8"/>
      <stop offset="1" stop-color="#7A57E6"/>
    </linearGradient>
  </defs>
  <g transform="translate(8 10)">
    <text x="500" y="102" text-anchor="end" direction="rtl" unicode-bidi="bidi-override" font-family="Tahoma, Arial, sans-serif" font-size="92" font-weight="800" fill="#111827">الشهامة</text>
    <text x="500" y="170" text-anchor="end" font-family="Arial, Helvetica, sans-serif" font-size="52" font-weight="800" letter-spacing="8" fill="#111827">ALSHAHAMA</text>
    <g transform="translate(535 12)">
      <path d="M54 2H101C116 2 128 14 128 29V80C128 92 121 103 111 109L70 134C60 140 47 140 37 134L10 117C0 111 -6 100 -6 88V36C-6 20 6 8 22 8H54Z" fill="none" stroke="url(#brand)" stroke-width="15" stroke-linejoin="round"/>
      <path d="M24 48H61C76 48 88 60 88 75V98" fill="none" stroke="url(#brand)" stroke-width="14" stroke-linecap="round" stroke-linejoin="round"/>
      <path d="M31 81H75" fill="none" stroke="#7454DF" stroke-width="14" stroke-linecap="round"/>
      <circle cx="24" cy="47" r="9" fill="#21BDB5"/>
      <circle cx="88" cy="110" r="25" fill="white" stroke="#7655E1" stroke-width="13"/>
      <circle cx="88" cy="110" r="6" fill="#7655E1"/>
      <path d="M100 28L116 20" stroke="#7755E1" stroke-width="9" stroke-linecap="round"/>
    </g>
  </g>
</svg>
